<svg xmlns="http://www.w3.org/2000/svg" xmlns:xlink="http://www.w3.org/1999/xlink" width="300" zoomAndPan="magnify" viewBox="0 0 224.87999 225" height="300" preserveAspectRatio="xMidYMid meet" version="1.0"><defs><g/></defs><path fill="#8c52ff" d="M 83.015625 81.875 C 82.644531 83.171875 80.230469 86.699219 79.304688 87.8125 C 78.378906 88.925781 74.851562 90.59375 74.664062 91.710938 C 74.480469 92.824219 76.148438 97.460938 78.5625 98.203125 C 80.976562 98.945312 83.203125 98.949219 83.945312 99.875 C 84.6875 100.800781 89.328125 106.738281 88.210938 109.710938 C 87.605469 111.332031 86.445312 115.671875 85.640625 120.105469 C 88.242188 120.691406 90.855469 121.09375 93.410156 121.28125 C 97 114.6875 105.425781 97.238281 108.832031 91.027344 C 109.144531 90.453125 109.492188 89.84375 109.867188 89.203125 C 107.359375 84.238281 104.371094 78.8125 103.246094 77.601562 C 102.050781 76.433594 96.714844 68.835938 94.558594 68.941406 C 94.542969 68.941406 94.53125 68.941406 94.519531 68.945312 C 93.699219 69.167969 94.894531 76.859375 94.894531 76.859375 C 94.894531 76.859375 89.089844 68.835938 87.796875 68.835938 C 87.742188 68.835938 87.695312 68.851562 87.660156 68.882812 C 86.730469 69.625 87.234375 75.9375 88.957031 78.902344 C 87.839844 79.644531 83.386719 80.574219 83.015625 81.875 Z M 83.015625 81.875 " fill-opacity="1" fill-rule="nonzero"/><path fill="#8c52ff" d="M 98.375 121.300781 C 100.890625 121.121094 103.292969 120.675781 105.515625 119.910156 C 109.957031 118.371094 113.960938 116.003906 117.40625 112.867188 C 120.28125 110.25 122.957031 108.503906 125.359375 107.675781 C 130.324219 105.957031 133.019531 108.363281 133.945312 109.476562 C 135.949219 111.882812 136.140625 115.6875 134.417969 118.726562 C 133.289062 120.714844 132.035156 122.484375 130.59375 124.082031 C 133.03125 123.0625 136.058594 121.285156 138.558594 118.242188 C 138.621094 118.167969 138.675781 118.097656 138.734375 118.023438 C 137.667969 113.554688 138.410156 109.875 139.5625 106.464844 C 140.417969 103.929688 144.175781 103.128906 151.183594 103.128906 C 156.25 103.128906 159.871094 101.488281 161.949219 98.25 C 163.992188 95.0625 164.15625 91.074219 163.875 88.808594 C 163.789062 88.140625 163.234375 87.632812 162.5625 87.605469 C 162.269531 87.59375 161.976562 87.582031 161.726562 87.574219 C 160.4375 87.539062 158.980469 87.496094 157.578125 87.121094 C 153.417969 86 149.523438 82.601562 146.886719 77.796875 C 146.0625 76.296875 142.949219 75.621094 140.449219 75.078125 C 139.441406 74.859375 138.484375 74.652344 137.609375 74.390625 C 134.601562 73.488281 132.746094 70.113281 130.78125 66.542969 C 130.316406 65.691406 129.84375 64.832031 129.359375 64.015625 C 129.125 63.613281 128.542969 63.59375 128.277344 63.980469 C 123.675781 70.660156 125.597656 76.097656 124.933594 76.503906 C 123.019531 77.378906 115.671875 86.675781 112.59375 92.878906 C 109.546875 99.023438 101.964844 114.871094 98.375 121.300781 Z M 98.375 121.300781 " fill-opacity="1" fill-rule="nonzero"/><path fill="#0cc0df" d="M 66.121094 112.820312 C 69.273438 114.609375 72.789062 116.246094 76.476562 117.601562 C 73.3125 113.433594 70.742188 108.707031 68.9375 103.5 C 59.765625 76.976562 73.875 47.941406 100.394531 38.765625 C 126.914062 29.589844 155.953125 43.703125 165.128906 70.222656 C 169.882812 83.960938 168.382812 98.375 162.148438 110.351562 C 164.085938 110.222656 165.992188 111.027344 167.289062 112.609375 C 167.445312 112.800781 167.585938 113 167.714844 113.203125 C 174.699219 99.761719 176.375 83.589844 171.042969 68.175781 C 160.738281 38.398438 128.128906 22.550781 98.351562 32.855469 C 68.574219 43.15625 52.726562 75.765625 63.027344 105.542969 C 63.902344 108.074219 64.941406 110.5 66.121094 112.820312 Z M 66.121094 112.820312 " fill-opacity="1" fill-rule="nonzero"/><path fill="#0cc0df" d="M 159.359375 116.625 C 160.761719 111.78125 156.21875 109.078125 152.433594 115.820312 C 154 111.722656 150.523438 108.492188 147.207031 111.933594 C 144.964844 114.265625 144.628906 116.640625 141.390625 120.574219 C 133.976562 129.582031 121.78125 130.535156 117.851562 128.625 C 124.730469 125.429688 128.410156 121.886719 131.230469 116.917969 C 133.5 112.914062 130.378906 106.03125 119.875 115.582031 C 103.441406 130.527344 79.359375 126.511719 68.789062 118.445312 C 82.859375 139.78125 110.066406 149.742188 135.332031 141 C 147.886719 136.65625 157.964844 128.382812 164.667969 118.03125 C 166.425781 115.035156 161.890625 111.449219 159.359375 116.625 Z M 159.359375 116.625 " fill-opacity="1" fill-rule="nonzero"/><path fill="#8c52ff" d="M 130.5625 53.574219 C 130.050781 52.632812 129.21875 51.675781 128.117188 51.480469 C 123.722656 50.703125 122.132812 48.878906 131.40625 43.691406 C 126.007812 42.011719 119.835938 46.816406 117.980469 50.316406 C 113.5 47.382812 108.726562 48.074219 105.089844 41.203125 C 101.214844 49.058594 108.273438 56.378906 108.273438 56.378906 C 108.273438 56.378906 96.226562 62.585938 92.945312 65.0625 C 92.570312 65.34375 92.851562 65.933594 93.308594 65.820312 C 98.328125 64.601562 105.917969 58.515625 113.40625 60.886719 C 114.894531 61.476562 116.769531 61.773438 118.792969 61.660156 C 122.699219 61.441406 125.898438 59.757812 126.738281 57.667969 C 127.132812 57.71875 127.539062 57.699219 127.945312 57.597656 C 128.847656 57.371094 129.71875 56.894531 130.195312 56.1875 C 130.453125 55.808594 130.859375 55.550781 131.308594 55.453125 C 131.761719 55.347656 132.203125 55.25 132.660156 55.265625 C 132.71875 54.21875 131.109375 54.570312 130.5625 53.574219 Z M 130.5625 53.574219 " fill-opacity="1" fill-rule="nonzero"/><g fill="#8c52ff" fill-opacity="1"><g transform="translate(37.289061, 168.47767)"><g><path d="M 6 -7.21875 C 6.257812 -7.15625 6.519531 -7.101562 6.78125 -7.0625 C 7.039062 -7.03125 7.289062 -7.015625 7.53125 -7.015625 C 8.03125 -7.015625 8.5 -7.085938 8.9375 -7.234375 C 9.382812 -7.378906 9.769531 -7.601562 10.09375 -7.90625 C 10.425781 -8.207031 10.6875 -8.585938 10.875 -9.046875 C 11.0625 -9.515625 11.15625 -10.050781 11.15625 -10.65625 C 11.15625 -11.25 11.0625 -11.765625 10.875 -12.203125 C 10.6875 -12.640625 10.425781 -13 10.09375 -13.28125 C 9.757812 -13.570312 9.367188 -13.785156 8.921875 -13.921875 C 8.484375 -14.066406 8.007812 -14.140625 7.5 -14.140625 C 7.269531 -14.140625 7.023438 -14.117188 6.765625 -14.078125 C 6.515625 -14.046875 6.257812 -14 6 -13.9375 Z M 6 -2.71875 C 6 -2.394531 6.035156 -2.117188 6.109375 -1.890625 C 6.191406 -1.660156 6.332031 -1.472656 6.53125 -1.328125 C 6.738281 -1.191406 7.023438 -1.09375 7.390625 -1.03125 C 7.753906 -0.976562 8.21875 -0.953125 8.78125 -0.953125 L 8.78125 0 L 0.6875 0 L 0.6875 -0.953125 C 1.113281 -0.953125 1.457031 -0.972656 1.71875 -1.015625 C 1.988281 -1.066406 2.195312 -1.144531 2.34375 -1.25 C 2.488281 -1.351562 2.582031 -1.488281 2.625 -1.65625 C 2.675781 -1.832031 2.703125 -2.046875 2.703125 -2.296875 L 2.703125 -12.46875 C 2.703125 -12.757812 2.664062 -12.992188 2.59375 -13.171875 C 2.53125 -13.347656 2.410156 -13.484375 2.234375 -13.578125 C 2.066406 -13.679688 1.84375 -13.75 1.5625 -13.78125 C 1.289062 -13.820312 0.945312 -13.84375 0.53125 -13.84375 L 0.53125 -14.796875 C 1.007812 -14.835938 1.507812 -14.875 2.03125 -14.90625 C 2.550781 -14.9375 3.0625 -14.960938 3.5625 -14.984375 C 4.070312 -15.015625 4.566406 -15.039062 5.046875 -15.0625 C 5.523438 -15.082031 5.96875 -15.097656 6.375 -15.109375 C 6.78125 -15.128906 7.132812 -15.144531 7.4375 -15.15625 C 7.75 -15.164062 7.988281 -15.171875 8.15625 -15.171875 C 8.695312 -15.160156 9.234375 -15.117188 9.765625 -15.046875 C 10.304688 -14.972656 10.816406 -14.859375 11.296875 -14.703125 C 11.785156 -14.554688 12.238281 -14.359375 12.65625 -14.109375 C 13.070312 -13.867188 13.429688 -13.578125 13.734375 -13.234375 C 14.035156 -12.890625 14.269531 -12.488281 14.4375 -12.03125 C 14.613281 -11.582031 14.703125 -11.078125 14.703125 -10.515625 C 14.703125 -9.765625 14.53125 -9.101562 14.1875 -8.53125 C 13.84375 -7.96875 13.378906 -7.492188 12.796875 -7.109375 C 12.222656 -6.722656 11.554688 -6.429688 10.796875 -6.234375 C 10.046875 -6.046875 9.257812 -5.953125 8.4375 -5.953125 C 8.03125 -5.953125 7.617188 -5.972656 7.203125 -6.015625 C 6.796875 -6.066406 6.394531 -6.132812 6 -6.21875 Z M 6 -2.71875 "/></g></g></g><g fill="#8c52ff" fill-opacity="1"><g transform="translate(53.319755, 168.47767)"><g><path d="M 12.890625 -11.34375 C 12.835938 -11.695312 12.78125 -12.003906 12.71875 -12.265625 C 12.65625 -12.523438 12.585938 -12.710938 12.515625 -12.828125 C 12.265625 -13.253906 11.84375 -13.46875 11.25 -13.46875 L 6.078125 -13.46875 L 6.078125 -8.140625 L 9.90625 -8.140625 C 10.539062 -8.140625 10.988281 -8.273438 11.25 -8.546875 C 11.519531 -8.816406 11.664062 -9.253906 11.6875 -9.859375 L 12.65625 -9.859375 L 12.65625 -5.09375 L 11.6875 -5.09375 C 11.675781 -5.457031 11.628906 -5.75 11.546875 -5.96875 C 11.472656 -6.195312 11.351562 -6.375 11.1875 -6.5 C 11.019531 -6.625 10.800781 -6.707031 10.53125 -6.75 C 10.269531 -6.789062 9.945312 -6.8125 9.5625 -6.8125 L 6.078125 -6.8125 L 6.078125 -2.5625 C 6.078125 -2.300781 6.09375 -2.085938 6.125 -1.921875 C 6.164062 -1.765625 6.21875 -1.640625 6.28125 -1.546875 C 6.351562 -1.460938 6.441406 -1.40625 6.546875 -1.375 C 6.660156 -1.34375 6.789062 -1.328125 6.9375 -1.328125 L 10.921875 -1.328125 C 11.335938 -1.328125 11.691406 -1.363281 11.984375 -1.4375 C 12.273438 -1.507812 12.523438 -1.640625 12.734375 -1.828125 C 12.941406 -2.015625 13.113281 -2.257812 13.25 -2.5625 C 13.394531 -2.875 13.523438 -3.273438 13.640625 -3.765625 L 14.5625 -3.765625 C 14.5625 -3.722656 14.550781 -3.601562 14.53125 -3.40625 C 14.519531 -3.21875 14.503906 -2.992188 14.484375 -2.734375 C 14.460938 -2.472656 14.441406 -2.191406 14.421875 -1.890625 C 14.398438 -1.597656 14.378906 -1.316406 14.359375 -1.046875 C 14.335938 -0.785156 14.320312 -0.554688 14.3125 -0.359375 C 14.300781 -0.171875 14.289062 -0.0507812 14.28125 0 L -0.046875 0 L -0.046875 -0.953125 L 0.9375 -0.953125 C 2.175781 -0.953125 2.796875 -1.519531 2.796875 -2.65625 L 2.796875 -12.109375 C 2.796875 -12.410156 2.738281 -12.6875 2.625 -12.9375 C 2.519531 -13.1875 2.398438 -13.382812 2.265625 -13.53125 C 2.117188 -13.613281 1.90625 -13.6875 1.625 -13.75 C 1.34375 -13.8125 1.039062 -13.84375 0.71875 -13.84375 L 0.484375 -13.84375 L 0.484375 -14.796875 L 13.578125 -14.796875 C 13.609375 -14.234375 13.644531 -13.65625 13.6875 -13.0625 C 13.726562 -12.46875 13.773438 -11.894531 13.828125 -11.34375 Z M 12.890625 -11.34375 "/></g></g></g><g fill="#8c52ff" fill-opacity="1"><g transform="translate(69.350449, 168.47767)"><g><path d="M 10.3125 -13.53125 L 10.3125 -2.71875 C 10.3125 -2.394531 10.347656 -2.117188 10.421875 -1.890625 C 10.492188 -1.660156 10.625 -1.472656 10.8125 -1.328125 C 11.007812 -1.191406 11.28125 -1.09375 11.625 -1.03125 C 11.96875 -0.976562 12.40625 -0.953125 12.9375 -0.953125 L 12.9375 0 L 4.390625 0 L 4.390625 -0.953125 C 4.890625 -0.953125 5.304688 -0.988281 5.640625 -1.0625 C 5.972656 -1.144531 6.238281 -1.257812 6.4375 -1.40625 C 6.644531 -1.550781 6.789062 -1.734375 6.875 -1.953125 C 6.957031 -2.171875 7 -2.425781 7 -2.71875 L 7 -13.53125 C 5.84375 -13.53125 4.910156 -13.519531 4.203125 -13.5 C 3.503906 -13.476562 3.101562 -13.453125 3 -13.421875 C 2.800781 -13.359375 2.632812 -13.265625 2.5 -13.140625 C 2.363281 -13.023438 2.242188 -12.863281 2.140625 -12.65625 C 2.046875 -12.445312 1.960938 -12.1875 1.890625 -11.875 C 1.816406 -11.5625 1.742188 -11.179688 1.671875 -10.734375 L 0.65625 -10.734375 C 0.664062 -10.828125 0.679688 -10.988281 0.703125 -11.21875 C 0.722656 -11.445312 0.75 -11.710938 0.78125 -12.015625 C 0.8125 -12.316406 0.84375 -12.632812 0.875 -12.96875 C 0.90625 -13.300781 0.9375 -13.617188 0.96875 -13.921875 C 1 -14.222656 1.023438 -14.488281 1.046875 -14.71875 C 1.078125 -14.945312 1.09375 -15.101562 1.09375 -15.1875 L 1.875 -15.1875 C 1.988281 -15.101562 2.082031 -15.035156 2.15625 -14.984375 C 2.226562 -14.929688 2.289062 -14.890625 2.34375 -14.859375 C 2.40625 -14.835938 2.460938 -14.820312 2.515625 -14.8125 C 2.566406 -14.800781 2.628906 -14.796875 2.703125 -14.796875 L 14.3125 -14.796875 C 14.757812 -14.796875 15.140625 -14.925781 15.453125 -15.1875 L 16.21875 -15.1875 C 16.226562 -15.101562 16.242188 -14.945312 16.265625 -14.71875 C 16.285156 -14.488281 16.3125 -14.222656 16.34375 -13.921875 C 16.375 -13.617188 16.40625 -13.300781 16.4375 -12.96875 C 16.46875 -12.632812 16.5 -12.316406 16.53125 -12.015625 C 16.5625 -11.722656 16.585938 -11.457031 16.609375 -11.21875 C 16.628906 -10.988281 16.644531 -10.828125 16.65625 -10.734375 L 15.671875 -10.734375 C 15.554688 -11.378906 15.441406 -11.890625 15.328125 -12.265625 C 15.210938 -12.640625 15.0625 -12.921875 14.875 -13.109375 C 14.695312 -13.296875 14.46875 -13.410156 14.1875 -13.453125 C 13.90625 -13.503906 13.539062 -13.53125 13.09375 -13.53125 Z M 10.3125 -13.53125 "/></g></g></g><g fill="#8c52ff" fill-opacity="1"><g transform="translate(87.355568, 168.47767)"><g><path d="M 13.484375 -10.109375 C 13.515625 -10.160156 13.566406 -10.253906 13.640625 -10.390625 C 13.710938 -10.535156 13.789062 -10.695312 13.875 -10.875 C 13.96875 -11.050781 14.066406 -11.238281 14.171875 -11.4375 C 14.273438 -11.644531 14.375 -11.835938 14.46875 -12.015625 C 14.5625 -12.191406 14.640625 -12.347656 14.703125 -12.484375 C 14.765625 -12.617188 14.8125 -12.710938 14.84375 -12.765625 C 14.90625 -12.910156 14.957031 -13.035156 15 -13.140625 C 15.039062 -13.253906 15.0625 -13.347656 15.0625 -13.421875 C 15.0625 -13.554688 14.976562 -13.660156 14.8125 -13.734375 C 14.644531 -13.804688 14.40625 -13.84375 14.09375 -13.84375 L 12.828125 -13.84375 C 12.523438 -13.84375 12.304688 -13.800781 12.171875 -13.71875 C 12.035156 -13.644531 11.96875 -13.535156 11.96875 -13.390625 C 11.96875 -13.316406 11.984375 -13.226562 12.015625 -13.125 C 12.046875 -13.03125 12.085938 -12.929688 12.140625 -12.828125 Z M 8.359375 0.34375 C 8.347656 0.320312 8.253906 0.132812 8.078125 -0.21875 C 7.910156 -0.570312 7.695312 -1.03125 7.4375 -1.59375 C 7.175781 -2.15625 6.875 -2.789062 6.53125 -3.5 C 6.195312 -4.207031 5.851562 -4.929688 5.5 -5.671875 C 5.15625 -6.410156 4.8125 -7.132812 4.46875 -7.84375 C 4.125 -8.5625 3.816406 -9.207031 3.546875 -9.78125 C 3.285156 -10.351562 3.066406 -10.828125 2.890625 -11.203125 C 2.710938 -11.578125 2.609375 -11.789062 2.578125 -11.84375 C 2.429688 -12.15625 2.3125 -12.40625 2.21875 -12.59375 C 2.125 -12.78125 2.066406 -12.890625 2.046875 -12.921875 L 2.046875 -12.90625 C 1.921875 -13.101562 1.796875 -13.265625 1.671875 -13.390625 C 1.554688 -13.515625 1.429688 -13.609375 1.296875 -13.671875 C 1.171875 -13.742188 1.03125 -13.789062 0.875 -13.8125 C 0.71875 -13.832031 0.546875 -13.84375 0.359375 -13.84375 L 0.125 -13.84375 L 0.125 -14.796875 L 6.46875 -14.796875 L 6.46875 -13.84375 C 6.164062 -13.8125 5.945312 -13.742188 5.8125 -13.640625 C 5.675781 -13.546875 5.609375 -13.421875 5.609375 -13.265625 C 5.609375 -13.160156 5.628906 -13.023438 5.671875 -12.859375 C 5.710938 -12.703125 5.769531 -12.550781 5.84375 -12.40625 C 6.1875 -11.707031 6.539062 -10.96875 6.90625 -10.1875 C 7.28125 -9.414062 7.660156 -8.632812 8.046875 -7.84375 C 8.429688 -7.050781 8.8125 -6.265625 9.1875 -5.484375 C 9.5625 -4.710938 9.910156 -3.984375 10.234375 -3.296875 C 10.472656 -3.796875 10.71875 -4.300781 10.96875 -4.8125 C 11.226562 -5.320312 11.488281 -5.835938 11.75 -6.359375 C 11.726562 -6.398438 11.671875 -6.515625 11.578125 -6.703125 C 11.492188 -6.890625 11.382812 -7.117188 11.25 -7.390625 C 11.125 -7.660156 10.976562 -7.960938 10.8125 -8.296875 C 10.65625 -8.640625 10.492188 -8.984375 10.328125 -9.328125 C 10.160156 -9.679688 9.992188 -10.023438 9.828125 -10.359375 C 9.671875 -10.703125 9.523438 -11.003906 9.390625 -11.265625 C 9.265625 -11.535156 9.160156 -11.757812 9.078125 -11.9375 C 8.992188 -12.113281 8.945312 -12.21875 8.9375 -12.25 C 8.789062 -12.550781 8.65625 -12.800781 8.53125 -13 C 8.40625 -13.207031 8.28125 -13.375 8.15625 -13.5 C 8.039062 -13.625 7.914062 -13.707031 7.78125 -13.75 C 7.65625 -13.800781 7.507812 -13.832031 7.34375 -13.84375 L 7.34375 -14.796875 L 17.75 -14.796875 L 17.75 -13.84375 C 17.5 -13.800781 17.285156 -13.734375 17.109375 -13.640625 C 16.941406 -13.554688 16.789062 -13.445312 16.65625 -13.3125 C 16.519531 -13.175781 16.398438 -13.007812 16.296875 -12.8125 C 16.191406 -12.613281 16.070312 -12.378906 15.9375 -12.109375 L 14.203125 -8.59375 C 14.242188 -8.519531 14.328125 -8.351562 14.453125 -8.09375 C 14.578125 -7.84375 14.722656 -7.546875 14.890625 -7.203125 C 15.066406 -6.859375 15.25 -6.492188 15.4375 -6.109375 C 15.625 -5.722656 15.800781 -5.351562 15.96875 -5 C 16.132812 -4.65625 16.285156 -4.351562 16.421875 -4.09375 C 16.554688 -3.832031 16.644531 -3.65625 16.6875 -3.5625 C 16.695312 -3.601562 16.75 -3.75 16.84375 -4 C 16.945312 -4.25 17.078125 -4.566406 17.234375 -4.953125 C 17.390625 -5.335938 17.5625 -5.769531 17.75 -6.25 C 17.9375 -6.726562 18.128906 -7.210938 18.328125 -7.703125 C 18.523438 -8.203125 18.710938 -8.691406 18.890625 -9.171875 C 19.078125 -9.648438 19.242188 -10.078125 19.390625 -10.453125 C 19.546875 -10.835938 19.671875 -11.15625 19.765625 -11.40625 C 19.867188 -11.664062 19.929688 -11.8125 19.953125 -11.84375 C 20.023438 -12.039062 20.082031 -12.226562 20.125 -12.40625 C 20.175781 -12.59375 20.203125 -12.757812 20.203125 -12.90625 C 20.203125 -13.207031 20.09375 -13.4375 19.875 -13.59375 C 19.65625 -13.75 19.300781 -13.832031 18.8125 -13.84375 L 18.8125 -14.796875 L 23.671875 -14.796875 L 23.671875 -13.84375 C 23.367188 -13.832031 23.109375 -13.785156 22.890625 -13.703125 C 22.671875 -13.617188 22.46875 -13.492188 22.28125 -13.328125 C 22.101562 -13.171875 21.9375 -12.960938 21.78125 -12.703125 C 21.632812 -12.441406 21.484375 -12.117188 21.328125 -11.734375 C 21.253906 -11.554688 21.140625 -11.265625 20.984375 -10.859375 C 20.828125 -10.460938 20.640625 -9.992188 20.421875 -9.453125 C 20.203125 -8.910156 19.960938 -8.3125 19.703125 -7.65625 C 19.441406 -7.007812 19.179688 -6.351562 18.921875 -5.6875 C 18.660156 -5.03125 18.398438 -4.378906 18.140625 -3.734375 C 17.890625 -3.085938 17.65625 -2.488281 17.4375 -1.9375 C 17.21875 -1.394531 17.03125 -0.921875 16.875 -0.515625 C 16.71875 -0.117188 16.601562 0.164062 16.53125 0.34375 L 14.96875 0.34375 L 12.4375 -4.875 C 12.382812 -4.769531 12.289062 -4.578125 12.15625 -4.296875 C 12.019531 -4.023438 11.867188 -3.707031 11.703125 -3.34375 C 11.535156 -2.988281 11.359375 -2.609375 11.171875 -2.203125 C 10.992188 -1.804688 10.820312 -1.429688 10.65625 -1.078125 C 10.488281 -0.734375 10.34375 -0.429688 10.21875 -0.171875 C 10.09375 0.0859375 10.015625 0.257812 9.984375 0.34375 Z M 8.359375 0.34375 "/></g></g></g><g fill="#8c52ff" fill-opacity="1"><g transform="translate(111.821445, 168.47767)"><g><path d="M 12.890625 -11.34375 C 12.835938 -11.695312 12.78125 -12.003906 12.71875 -12.265625 C 12.65625 -12.523438 12.585938 -12.710938 12.515625 -12.828125 C 12.265625 -13.253906 11.84375 -13.46875 11.25 -13.46875 L 6.078125 -13.46875 L 6.078125 -8.140625 L 9.90625 -8.140625 C 10.539062 -8.140625 10.988281 -8.273438 11.25 -8.546875 C 11.519531 -8.816406 11.664062 -9.253906 11.6875 -9.859375 L 12.65625 -9.859375 L 12.65625 -5.09375 L 11.6875 -5.09375 C 11.675781 -5.457031 11.628906 -5.75 11.546875 -5.96875 C 11.472656 -6.195312 11.351562 -6.375 11.1875 -6.5 C 11.019531 -6.625 10.800781 -6.707031 10.53125 -6.75 C 10.269531 -6.789062 9.945312 -6.8125 9.5625 -6.8125 L 6.078125 -6.8125 L 6.078125 -2.5625 C 6.078125 -2.300781 6.09375 -2.085938 6.125 -1.921875 C 6.164062 -1.765625 6.21875 -1.640625 6.28125 -1.546875 C 6.351562 -1.460938 6.441406 -1.40625 6.546875 -1.375 C 6.660156 -1.34375 6.789062 -1.328125 6.9375 -1.328125 L 10.921875 -1.328125 C 11.335938 -1.328125 11.691406 -1.363281 11.984375 -1.4375 C 12.273438 -1.507812 12.523438 -1.640625 12.734375 -1.828125 C 12.941406 -2.015625 13.113281 -2.257812 13.25 -2.5625 C 13.394531 -2.875 13.523438 -3.273438 13.640625 -3.765625 L 14.5625 -3.765625 C 14.5625 -3.722656 14.550781 -3.601562 14.53125 -3.40625 C 14.519531 -3.21875 14.503906 -2.992188 14.484375 -2.734375 C 14.460938 -2.472656 14.441406 -2.191406 14.421875 -1.890625 C 14.398438 -1.597656 14.378906 -1.316406 14.359375 -1.046875 C 14.335938 -0.785156 14.320312 -0.554688 14.3125 -0.359375 C 14.300781 -0.171875 14.289062 -0.0507812 14.28125 0 L -0.046875 0 L -0.046875 -0.953125 L 0.9375 -0.953125 C 2.175781 -0.953125 2.796875 -1.519531 2.796875 -2.65625 L 2.796875 -12.109375 C 2.796875 -12.410156 2.738281 -12.6875 2.625 -12.9375 C 2.519531 -13.1875 2.398438 -13.382812 2.265625 -13.53125 C 2.117188 -13.613281 1.90625 -13.6875 1.625 -13.75 C 1.34375 -13.8125 1.039062 -13.84375 0.71875 -13.84375 L 0.484375 -13.84375 L 0.484375 -14.796875 L 13.578125 -14.796875 C 13.609375 -14.234375 13.644531 -13.65625 13.6875 -13.0625 C 13.726562 -12.46875 13.773438 -11.894531 13.828125 -11.34375 Z M 12.890625 -11.34375 "/></g></g></g><g fill="#8c52ff" fill-opacity="1"><g transform="translate(127.852139, 168.47767)"><g><path d="M 14.796875 -4.140625 C 14.765625 -4.066406 14.703125 -3.925781 14.609375 -3.71875 C 14.523438 -3.507812 14.421875 -3.265625 14.296875 -2.984375 C 14.179688 -2.703125 14.0625 -2.40625 13.9375 -2.09375 C 13.8125 -1.789062 13.6875 -1.5 13.5625 -1.21875 C 13.445312 -0.9375 13.34375 -0.6875 13.25 -0.46875 C 13.15625 -0.25 13.085938 -0.09375 13.046875 0 L 0.328125 0 L 0.328125 -0.953125 L 0.71875 -0.953125 C 1.082031 -0.953125 1.390625 -0.988281 1.640625 -1.0625 C 1.898438 -1.132812 2.101562 -1.242188 2.25 -1.390625 C 2.40625 -1.535156 2.515625 -1.710938 2.578125 -1.921875 C 2.648438 -2.128906 2.6875 -2.375 2.6875 -2.65625 L 2.6875 -12.15625 C 2.6875 -13.28125 2.0625 -13.84375 0.8125 -13.84375 L 0.375 -13.84375 L 0.375 -14.796875 L 8.453125 -14.796875 L 8.453125 -13.84375 L 7.734375 -13.84375 C 6.554688 -13.84375 5.96875 -13.296875 5.96875 -12.203125 L 5.96875 -2.40625 C 5.96875 -2.1875 5.988281 -2.007812 6.03125 -1.875 C 6.070312 -1.738281 6.140625 -1.628906 6.234375 -1.546875 C 6.328125 -1.460938 6.445312 -1.40625 6.59375 -1.375 C 6.75 -1.34375 6.941406 -1.328125 7.171875 -1.328125 L 10.1875 -1.328125 C 10.601562 -1.328125 10.992188 -1.414062 11.359375 -1.59375 C 11.734375 -1.78125 12.066406 -2.03125 12.359375 -2.34375 C 12.503906 -2.488281 12.703125 -2.722656 12.953125 -3.046875 C 13.210938 -3.367188 13.503906 -3.734375 13.828125 -4.140625 Z M 14.796875 -4.140625 "/></g></g></g><g fill="#8c52ff" fill-opacity="1"><g transform="translate(142.89562, 168.47767)"><g><path d="M 14.796875 -4.140625 C 14.765625 -4.066406 14.703125 -3.925781 14.609375 -3.71875 C 14.523438 -3.507812 14.421875 -3.265625 14.296875 -2.984375 C 14.179688 -2.703125 14.0625 -2.40625 13.9375 -2.09375 C 13.8125 -1.789062 13.6875 -1.5 13.5625 -1.21875 C 13.445312 -0.9375 13.34375 -0.6875 13.25 -0.46875 C 13.15625 -0.25 13.085938 -0.09375 13.046875 0 L 0.328125 0 L 0.328125 -0.953125 L 0.71875 -0.953125 C 1.082031 -0.953125 1.390625 -0.988281 1.640625 -1.0625 C 1.898438 -1.132812 2.101562 -1.242188 2.25 -1.390625 C 2.40625 -1.535156 2.515625 -1.710938 2.578125 -1.921875 C 2.648438 -2.128906 2.6875 -2.375 2.6875 -2.65625 L 2.6875 -12.15625 C 2.6875 -13.28125 2.0625 -13.84375 0.8125 -13.84375 L 0.375 -13.84375 L 0.375 -14.796875 L 8.453125 -14.796875 L 8.453125 -13.84375 L 7.734375 -13.84375 C 6.554688 -13.84375 5.96875 -13.296875 5.96875 -12.203125 L 5.96875 -2.40625 C 5.96875 -2.1875 5.988281 -2.007812 6.03125 -1.875 C 6.070312 -1.738281 6.140625 -1.628906 6.234375 -1.546875 C 6.328125 -1.460938 6.445312 -1.40625 6.59375 -1.375 C 6.75 -1.34375 6.941406 -1.328125 7.171875 -1.328125 L 10.1875 -1.328125 C 10.601562 -1.328125 10.992188 -1.414062 11.359375 -1.59375 C 11.734375 -1.78125 12.066406 -2.03125 12.359375 -2.34375 C 12.503906 -2.488281 12.703125 -2.722656 12.953125 -3.046875 C 13.210938 -3.367188 13.503906 -3.734375 13.828125 -4.140625 Z M 14.796875 -4.140625 "/></g></g></g><g fill="#8c52ff" fill-opacity="1"><g transform="translate(157.939102, 168.47767)"><g/></g></g><g fill="#0cc0df" fill-opacity="1"><g transform="translate(163.5498, 168.47767)"><g><path d="M 9.984375 -6.8125 C 9.941406 -6.945312 9.859375 -7.15625 9.734375 -7.4375 C 9.617188 -7.726562 9.488281 -8.0625 9.34375 -8.4375 C 9.195312 -8.8125 9.039062 -9.203125 8.875 -9.609375 C 8.71875 -10.015625 8.566406 -10.398438 8.421875 -10.765625 C 8.273438 -11.140625 8.144531 -11.460938 8.03125 -11.734375 C 7.925781 -12.015625 7.851562 -12.210938 7.8125 -12.328125 C 7.476562 -11.410156 7.144531 -10.492188 6.8125 -9.578125 C 6.476562 -8.671875 6.144531 -7.75 5.8125 -6.8125 Z M 10.53125 -5.484375 L 5.328125 -5.484375 C 5.179688 -5.046875 5.019531 -4.582031 4.84375 -4.09375 C 4.675781 -3.613281 4.515625 -3.15625 4.359375 -2.71875 C 4.296875 -2.5625 4.25 -2.398438 4.21875 -2.234375 C 4.1875 -2.078125 4.171875 -1.941406 4.171875 -1.828125 C 4.171875 -1.679688 4.203125 -1.550781 4.265625 -1.4375 C 4.328125 -1.320312 4.4375 -1.226562 4.59375 -1.15625 C 4.757812 -1.082031 4.972656 -1.03125 5.234375 -1 C 5.492188 -0.96875 5.816406 -0.953125 6.203125 -0.953125 L 6.53125 -0.953125 L 6.53125 0 L 0.203125 0 L 0.203125 -0.953125 L 0.578125 -0.953125 C 0.867188 -0.953125 1.125 -0.988281 1.34375 -1.0625 C 1.570312 -1.144531 1.773438 -1.269531 1.953125 -1.4375 C 2.140625 -1.601562 2.304688 -1.820312 2.453125 -2.09375 C 2.609375 -2.375 2.753906 -2.710938 2.890625 -3.109375 L 6.953125 -14.453125 C 6.921875 -14.554688 6.878906 -14.671875 6.828125 -14.796875 C 6.785156 -14.929688 6.75 -15.050781 6.71875 -15.15625 L 10.25 -15.15625 L 14.96875 -3.0625 C 15.132812 -2.6875 15.296875 -2.367188 15.453125 -2.109375 C 15.609375 -1.859375 15.78125 -1.648438 15.96875 -1.484375 C 16.15625 -1.316406 16.359375 -1.191406 16.578125 -1.109375 C 16.804688 -1.023438 17.070312 -0.972656 17.375 -0.953125 L 17.375 0 L 9.625 0 L 9.625 -0.953125 L 10.46875 -0.953125 C 11.132812 -0.953125 11.566406 -1.09375 11.765625 -1.375 C 11.796875 -1.4375 11.820312 -1.503906 11.84375 -1.578125 C 11.863281 -1.648438 11.875 -1.726562 11.875 -1.8125 C 11.863281 -1.914062 11.835938 -2.054688 11.796875 -2.234375 C 11.765625 -2.421875 11.710938 -2.597656 11.640625 -2.765625 Z M 10.53125 -5.484375 "/></g></g></g><g fill="#0cc0df" fill-opacity="1"><g transform="translate(181.829145, 168.47767)"><g><path d="M 0.53125 -13.84375 L 0.53125 -14.796875 L 8.125 -14.796875 L 8.125 -13.84375 L 7.71875 -13.84375 C 6.507812 -13.84375 5.90625 -13.25 5.90625 -12.0625 L 5.90625 -2.671875 C 5.90625 -2.347656 5.941406 -2.078125 6.015625 -1.859375 C 6.097656 -1.640625 6.210938 -1.460938 6.359375 -1.328125 C 6.503906 -1.191406 6.691406 -1.09375 6.921875 -1.03125 C 7.160156 -0.976562 7.4375 -0.953125 7.75 -0.953125 L 8.125 -0.953125 L 8.125 0 L 0.53125 0 L 0.53125 -0.953125 L 0.90625 -0.953125 C 2.039062 -0.953125 2.609375 -1.5 2.609375 -2.59375 L 2.609375 -12.0625 C 2.609375 -12.695312 2.472656 -13.148438 2.203125 -13.421875 C 1.941406 -13.703125 1.492188 -13.84375 0.859375 -13.84375 Z M 0.53125 -13.84375 "/></g></g></g></svg>